<?xml version="1.0" encoding="UTF-8" standalone="no"?>
<svg
   xmlns:dc="http://purl.org/dc/elements/1.1/"
   xmlns:cc="http://creativecommons.org/ns#"
   xmlns:rdf="http://www.w3.org/1999/02/22-rdf-syntax-ns#"
   xmlns:svg="http://www.w3.org/2000/svg"
   xmlns="http://www.w3.org/2000/svg"
   xmlns:xlink="http://www.w3.org/1999/xlink"
   version="1.1"
   x="0px"
   y="0px"
   viewBox="0 0 671.71503 78.800005"
   xml:space="preserve"
   id="svg131"
   width="671.71503"
   height="78.800003"><metadata
   id="metadata137"><rdf:RDF><cc:Work
       rdf:about=""><dc:format>image/svg+xml</dc:format><dc:type
         rdf:resource="http://purl.org/dc/dcmitype/StillImage" /><dc:title></dc:title></cc:Work></rdf:RDF></metadata><defs
   id="defs135" />
<style
   type="text/css"
   id="style2">
	.st0{display:none;}
	.st1{display:inline;}
	.st2{fill:url(#SVGID_1_);}
	.st3{fill:url(#SVGID_2_);}
	.st4{fill:url(#SVGID_3_);}
	.st5{fill:url(#SVGID_4_);}
	.st6{fill:url(#SVGID_5_);}
	.st7{fill:url(#SVGID_6_);}
	.st8{fill:url(#SVGID_7_);}
	.st9{fill:url(#SVGID_8_);}
	.st10{fill:url(#SVGID_9_);}
	.st11{fill:url(#SVGID_10_);}
	.st12{fill:url(#SVGID_11_);}
	.st13{fill:#FF7900;}
	.st14{display:none;fill:#F98D00;}
	.st15{font-family:'Arial-BoldMT';}
	.st16{font-size:12px;}
</style>
<g
   id="Hintergrund"
   class="st0"
   transform="translate(-39.200001,-65.2)">
	<g
   class="st1"
   id="g19">
		
			<image
   xlink:href="87F7B963.png"
   style="overflow:visible;opacity:0.5"
   width="198"
   height="198"
   transform="translate(2.2441,2.2441)"
   id="image4">
		</image>
		<g
   id="g17">
			<radialGradient
   id="SVGID_1_"
   cx="99.214996"
   cy="99.214996"
   r="85.451698"
   gradientUnits="userSpaceOnUse">
				<stop
   offset="0"
   style="stop-color:#1F4785"
   id="stop6" />
				<stop
   offset="0.2712"
   style="stop-color:#1A427E"
   id="stop8" />
				<stop
   offset="0.6774"
   style="stop-color:#0D3669"
   id="stop10" />
				<stop
   offset="1"
   style="stop-color:#002954"
   id="stop12" />
			</radialGradient>
			<path
   class="st2"
   d="M 152.4,184.7 H 46 c -17.8,0 -32.3,-14.5 -32.3,-32.3 V 46 C 13.7,28.2 28.2,13.7 46,13.7 h 106.3 c 17.8,0 32.3,14.5 32.3,32.3 v 106.3 c 0.1,17.8 -14.5,32.4 -32.2,32.4 z"
   id="path15"
   style="fill:url(#SVGID_1_)" />
		</g>
	</g>
</g>
<g
   id="Hintergrund_2"
   class="st0"
   transform="translate(-39.200001,-65.2)">
	<g
   class="st1"
   id="g37">
		
			<image
   xlink:href="87F7B961.png"
   style="overflow:visible;opacity:0.5"
   width="198"
   height="198"
   transform="translate(2.2441,2.2441)"
   id="image22">
		</image>
		<g
   id="g35">
			<radialGradient
   id="SVGID_2_"
   cx="99.214996"
   cy="99.214996"
   r="85.451698"
   gradientUnits="userSpaceOnUse">
				<stop
   offset="0"
   style="stop-color:#145396"
   id="stop24" />
				<stop
   offset="0.2751"
   style="stop-color:#114E8F"
   id="stop26" />
				<stop
   offset="0.6871"
   style="stop-color:#083F7A"
   id="stop28" />
				<stop
   offset="1"
   style="stop-color:#003166"
   id="stop30" />
			</radialGradient>
			<path
   class="st3"
   d="M 152.4,184.7 H 46 c -17.8,0 -32.3,-14.5 -32.3,-32.3 V 46 C 13.7,28.2 28.2,13.7 46,13.7 h 106.3 c 17.8,0 32.3,14.5 32.3,32.3 v 106.3 c 0.1,17.8 -14.5,32.4 -32.2,32.4 z"
   id="path33"
   style="fill:url(#SVGID_2_)" />
		</g>
	</g>
</g>
<g
   id="Logo"
   style="display:inline"
   transform="translate(-39.200001,-65.2)">
	<linearGradient
   id="SVGID_3_"
   gradientUnits="userSpaceOnUse"
   x1="67.050598"
   y1="125.3333"
   x2="67.050598"
   y2="69.375"
   gradientTransform="matrix(1.2162163,0,0,1,-5.708109,0)">
		<stop
   offset="0"
   style="stop-color:#FF5500"
   id="stop40" />
		<stop
   offset="1"
   style="stop-color:#FFB700"
   id="stop42" />
	</linearGradient>
	<rect
   x="71.400002"
   y="69.400002"
   class="st4"
   width="9"
   height="56"
   id="rect45"
   style="fill:url(#SVGID_3_);stroke-width:1.10284" />
	<linearGradient
   id="SVGID_4_"
   gradientUnits="userSpaceOnUse"
   x1="83.132103"
   y1="125.3333"
   x2="83.132103"
   y2="89.941704"
   gradientTransform="matrix(1.2162163,0,0,1,-9.167566,0)">
		<stop
   offset="0"
   style="stop-color:#FF5500"
   id="stop47" />
		<stop
   offset="1"
   style="stop-color:#FFB700"
   id="stop49" />
	</linearGradient>
	<rect
   x="87.399986"
   y="89.900002"
   class="st5"
   width="9"
   height="35.400002"
   id="rect52"
   style="fill:url(#SVGID_4_);stroke-width:1.10284" />
	<linearGradient
   id="SVGID_5_"
   gradientUnits="userSpaceOnUse"
   x1="99.2136"
   y1="125.3333"
   x2="99.2136"
   y2="109.905"
   gradientTransform="matrix(1.2162163,0,0,1,-12.648651,0)">
		<stop
   offset="0"
   style="stop-color:#FF5500"
   id="stop54" />
		<stop
   offset="1"
   style="stop-color:#FFB700"
   id="stop56" />
	</linearGradient>
	<rect
   x="103.5"
   y="109.9"
   class="st6"
   width="9"
   height="15.4"
   id="rect59"
   style="fill:url(#SVGID_5_);stroke-width:1.10284" />
	<linearGradient
   id="SVGID_6_"
   gradientUnits="userSpaceOnUse"
   x1="50.969101"
   y1="125.3333"
   x2="50.969101"
   y2="89.941704">
		<stop
   offset="0"
   style="stop-color:#FF5500"
   id="stop61" />
		<stop
   offset="1"
   style="stop-color:#FFB700"
   id="stop63" />
	</linearGradient>
	<polygon
   class="st7"
   points="54.7,89.9 47.3,89.9 47.3,125.3 54.7,125.3 "
   id="polygon66"
   style="fill:url(#SVGID_6_)"
   transform="matrix(1.2162162,0,0,1,-2.227025,0)" />
	<linearGradient
   id="SVGID_7_"
   gradientUnits="userSpaceOnUse"
   x1="34.8876"
   y1="125.3333"
   x2="34.8876"
   y2="109.905"
   gradientTransform="matrix(1.2162163,0,0,1,1.2540552,0)">
		<stop
   offset="0"
   style="stop-color:#FF5500"
   id="stop68" />
		<stop
   offset="1"
   style="stop-color:#FFB700"
   id="stop70" />
	</linearGradient>
	<rect
   x="39.200001"
   y="109.9"
   class="st8"
   width="9"
   height="15.4"
   id="rect73"
   style="fill:url(#SVGID_7_);stroke-width:1.10284" />
	<linearGradient
   id="SVGID_8_"
   gradientUnits="userSpaceOnUse"
   x1="131.3951"
   y1="125.3333"
   x2="131.3951"
   y2="69.375">
		<stop
   offset="0"
   style="stop-color:#FF5500"
   id="stop75" />
		<stop
   offset="1"
   style="stop-color:#FFB700"
   id="stop77" />
	</linearGradient>
	<polygon
   class="st9"
   points="135.1,69.4 127.7,69.4 127.7,125.3 135.1,125.3 "
   id="polygon80"
   style="fill:url(#SVGID_8_)"
   transform="matrix(1.2162162,0,0,1,-19.610805,0)" />
	<linearGradient
   id="SVGID_9_"
   gradientUnits="userSpaceOnUse"
   x1="115.3136"
   y1="125.3333"
   x2="115.3136"
   y2="89.941704">
		<stop
   offset="0"
   style="stop-color:#FF5500"
   id="stop82" />
		<stop
   offset="1"
   style="stop-color:#FFB700"
   id="stop84" />
	</linearGradient>
	<polygon
   class="st10"
   points="119,89.9 111.6,89.9 111.6,125.3 119,125.3 "
   id="polygon87"
   style="fill:url(#SVGID_9_)"
   transform="matrix(1.2162162,0,0,1,-16.129724,0)" />
	<linearGradient
   id="SVGID_10_"
   gradientUnits="userSpaceOnUse"
   x1="147.4765"
   y1="125.3333"
   x2="147.4765"
   y2="89.941704"
   gradientTransform="matrix(1.2162163,0,0,1,-23.091898,0)">
		<stop
   offset="0"
   style="stop-color:#FF5500"
   id="stop89" />
		<stop
   offset="1"
   style="stop-color:#FFB700"
   id="stop91" />
	</linearGradient>
	<rect
   x="151.8"
   y="89.900002"
   class="st11"
   width="9"
   height="35.400002"
   id="rect94"
   style="fill:url(#SVGID_10_);stroke-width:1.10284" />
	<linearGradient
   id="SVGID_11_"
   gradientUnits="userSpaceOnUse"
   x1="163.558"
   y1="125.3333"
   x2="163.558"
   y2="109.905">
		<stop
   offset="0"
   style="stop-color:#FF5500"
   id="stop96" />
		<stop
   offset="1"
   style="stop-color:#FFB700"
   id="stop98" />
	</linearGradient>
	<polygon
   class="st12"
   points="159.9,109.9 159.9,125.3 167.2,125.3 167.2,109.9 "
   id="polygon101"
   style="fill:url(#SVGID_11_)"
   transform="matrix(1.2328767,0,0,1,-29.236991,0)" />
</g>
<g
   id="Text"
   style="display:inline"
   transform="translate(-39.200001,-65.2)">
	<g
   id="g126">
		<path
   class="st13"
   d="m 205.6,65.2 h 22.5 c 5.1,0 8.9,0.4 11.6,1.2 3.6,1.1 6.6,2.9 9.2,5.6 2.5,2.7 4.5,6 5.8,9.9 1.3,3.9 2,8.7 2,14.4 0,5 -0.6,9.3 -1.9,13 -1.5,4.4 -3.7,8 -6.5,10.8 -2.1,2.1 -5,3.7 -8.6,4.9 -2.7,0.9 -6.3,1.3 -10.9,1.3 H 205.7 V 65.2 Z m 12.3,10.3 v 40.3 h 9.2 c 3.4,0 5.9,-0.2 7.4,-0.6 2,-0.5 3.6,-1.3 5,-2.5 1.3,-1.2 2.4,-3.1 3.2,-5.9 0.8,-2.7 1.2,-6.4 1.2,-11.1 0,-4.7 -0.4,-8.3 -1.2,-10.8 -0.8,-2.5 -2,-4.5 -3.5,-5.9 -1.5,-1.4 -3.4,-2.4 -5.7,-2.9 -1.7,-0.4 -5.1,-0.6 -10.1,-0.6 z"
   id="path104" />
		<path
   class="st13"
   d="M 278.2,126.1 H 266.5 V 82 h 10.8 v 6.3 c 1.9,-3 3.5,-4.9 5,-5.9 1.5,-0.9 3.2,-1.4 5,-1.4 2.7,0 5.2,0.7 7.7,2.2 l -3.6,10.2 c -2,-1.3 -3.8,-1.9 -5.5,-1.9 -1.6,0 -3,0.5 -4.2,1.3 -1.1,0.9 -2,2.5 -2.7,4.9 -0.7,2.4 -1,7.3 -1,14.8 v 13.6 z"
   id="path106" />
		<path
   class="st13"
   d="m 297.4,103.4 c 0,-3.9 1,-7.6 2.9,-11.3 1.9,-3.6 4.6,-6.4 8.1,-8.3 3.5,-1.9 7.4,-2.9 11.7,-2.9 6.7,0 12.1,2.2 16.4,6.5 4.3,4.3 6.4,9.8 6.4,16.4 0,6.7 -2.2,12.2 -6.5,16.6 -4.3,4.4 -9.7,6.6 -16.3,6.6 -4,0 -7.9,-0.9 -11.6,-2.7 -3.7,-1.8 -6.5,-4.5 -8.4,-8 -1.9,-3.5 -2.7,-7.8 -2.7,-12.9 z m 12,0.6 c 0,4.4 1,7.7 3.1,10 2.1,2.3 4.6,3.5 7.7,3.5 3.1,0 5.6,-1.2 7.7,-3.5 2.1,-2.3 3.1,-5.7 3.1,-10.1 0,-4.3 -1,-7.6 -3.1,-10 -2.1,-2.3 -4.6,-3.5 -7.7,-3.5 -3.1,0 -5.6,1.2 -7.7,3.5 -2.1,2.3 -3.1,5.8 -3.1,10.1 z"
   id="path108" />
		<path
   class="st13"
   d="m 392.2,126.1 h -11.7 v -22.5 c 0,-4.8 -0.2,-7.8 -0.7,-9.2 -0.5,-1.4 -1.3,-2.5 -2.4,-3.3 -1.1,-0.8 -2.5,-1.2 -4,-1.2 -2,0 -3.8,0.6 -5.4,1.7 -1.6,1.1 -2.7,2.6 -3.3,4.4 -0.6,1.8 -0.9,5.2 -0.9,10.1 v 20 H 352 V 82 h 10.8 v 6.5 c 3.8,-5 8.7,-7.5 14.5,-7.5 2.6,0 4.9,0.5 7.1,1.4 2.1,0.9 3.7,2.1 4.8,3.6 1.1,1.5 1.9,3.1 2.3,4.9 0.4,1.8 0.6,4.4 0.6,7.8 v 27.4 z"
   id="path110" />
		<path
   class="st13"
   d="m 429.5,112 11.6,2 c -1.5,4.3 -3.9,7.5 -7.1,9.7 -3.2,2.2 -7.3,3.3 -12.1,3.3 -7.7,0 -13.3,-2.5 -17,-7.5 -2.9,-4 -4.4,-9.1 -4.4,-15.2 0,-7.3 1.9,-13 5.7,-17.2 3.8,-4.1 8.7,-6.2 14.5,-6.2 6.6,0 11.7,2.2 15.5,6.5 3.8,4.3 5.6,11 5.4,19.9 h -29.2 c 0.1,3.5 1,6.2 2.8,8.1 1.8,1.9 4,2.9 6.7,2.9 1.8,0 3.4,-0.5 4.6,-1.5 1.5,-0.9 2.4,-2.5 3,-4.8 z m 0.7,-11.8 c -0.1,-3.4 -1,-5.9 -2.6,-7.7 -1.6,-1.8 -3.7,-2.6 -6.1,-2.6 -2.5,0 -4.7,0.9 -6.3,2.8 -1.7,1.9 -2.5,4.4 -2.4,7.6 h 17.4 z"
   id="path112" />
		<path
   class="st13"
   d="m 451.4,65.2 h 24.3 c 4.8,0 8.4,0.2 10.8,0.6 2.4,0.4 4.5,1.2 6.4,2.5 1.9,1.3 3.4,3 4.7,5.1 1.2,2.1 1.9,4.5 1.9,7.1 0,2.9 -0.8,5.5 -2.3,7.8 -1.5,2.4 -3.6,4.2 -6.2,5.4 3.7,1.1 6.6,2.9 8.6,5.5 2,2.6 3,5.7 3,9.2 0,2.8 -0.6,5.5 -1.9,8.1 -1.3,2.6 -3,4.7 -5.3,6.3 -2.2,1.6 -5,2.5 -8.2,2.9 -2,0.2 -7,0.4 -14.8,0.4 H 451.7 V 65.2 Z m 12.3,10.1 v 14.1 h 8.1 c 4.8,0 7.8,-0.1 8.9,-0.2 2.1,-0.2 3.8,-1 5,-2.2 1.2,-1.2 1.8,-2.8 1.8,-4.8 0,-1.9 -0.5,-3.4 -1.6,-4.6 -1,-1.2 -2.6,-1.9 -4.6,-2.1 -1.2,-0.1 -4.7,-0.2 -10.5,-0.2 z m 0,24.2 v 16.3 h 11.4 c 4.4,0 7.2,-0.1 8.4,-0.4 1.8,-0.3 3.3,-1.1 4.5,-2.4 1.1,-1.3 1.7,-3 1.7,-5.2 0,-1.8 -0.4,-3.4 -1.3,-4.7 -0.9,-1.3 -2.2,-2.2 -3.8,-2.8 -1.7,-0.6 -5.3,-0.9 -10.9,-0.9 h -10 z"
   id="path114" />
		<path
   class="st13"
   d="M 523.9,126.1 H 512.2 V 82 H 523 v 6.3 c 1.9,-3 3.5,-4.9 5,-5.9 1.5,-0.9 3.2,-1.4 5,-1.4 2.7,0 5.2,0.7 7.7,2.2 l -3.6,10.2 c -2,-1.3 -3.8,-1.9 -5.5,-1.9 -1.6,0 -3,0.5 -4.2,1.3 -1.1,0.9 -2,2.5 -2.7,4.9 -0.7,2.4 -1,7.3 -1,14.8 v 13.6 z"
   id="path116" />
		<path
   class="st13"
   d="M 545.8,76 V 65.2 h 11.7 V 76 Z m 0,50.1 V 82 h 11.7 v 44.1 z"
   id="path118" />
		<path
   class="st13"
   d="M 609.9,126.1 H 599 v -6.5 c -1.8,2.5 -3.9,4.4 -6.4,5.6 -2.5,1.2 -4.9,1.8 -7.4,1.8 -5.1,0 -9.4,-2 -13,-6.1 -3.6,-4.1 -5.4,-9.8 -5.4,-17.1 0,-7.5 1.8,-13.2 5.3,-17 3.5,-3.9 8,-5.8 13.3,-5.8 4.9,0 9.2,2 12.8,6.1 V 65.2 h 11.7 z m -31.2,-23 c 0,4.7 0.7,8.1 2,10.2 1.9,3 4.5,4.6 7.9,4.6 2.7,0 5,-1.1 6.9,-3.4 1.9,-2.3 2.8,-5.7 2.8,-10.2 0,-5.1 -0.9,-8.7 -2.7,-10.9 -1.8,-2.2 -4.2,-3.3 -7,-3.3 -2.8,0 -5.1,1.1 -7,3.3 -1.9,2 -2.9,5.3 -2.9,9.7 z"
   id="path120" />
		<path
   class="st13"
   d="m 620.3,129 13.3,1.6 c 0.2,1.5 0.7,2.6 1.5,3.2 1.1,0.8 2.9,1.2 5.2,1.2 3,0 5.3,-0.5 6.9,-1.4 1,-0.6 1.8,-1.6 2.3,-2.9 0.4,-1 0.5,-2.8 0.5,-5.4 v -6.4 c -3.5,4.8 -7.9,7.1 -13.2,7.1 -5.9,0 -10.6,-2.5 -14.1,-7.5 -2.7,-4 -4.1,-8.9 -4.1,-14.8 0,-7.4 1.8,-13 5.3,-16.9 3.5,-3.9 8,-5.9 13.3,-5.9 5.5,0 10,2.4 13.5,7.2 V 82 h 10.9 v 39.6 c 0,5.2 -0.4,9.1 -1.3,11.7 -0.9,2.6 -2.1,4.6 -3.6,6.1 -1.6,1.5 -3.6,2.6 -6.2,3.4 -2.6,0.8 -5.9,1.2 -9.8,1.2 -7.5,0 -12.8,-1.3 -15.9,-3.8 -3.1,-2.6 -4.7,-5.8 -4.7,-9.7 0.1,-0.5 0.2,-1 0.2,-1.5 z m 10.4,-25.9 c 0,4.7 0.9,8.1 2.7,10.3 1.8,2.2 4,3.3 6.7,3.3 2.9,0 5.3,-1.1 7.2,-3.3 2,-2.2 2.9,-5.5 2.9,-9.9 0,-4.6 -0.9,-8 -2.8,-10.2 -1.9,-2.2 -4.3,-3.3 -7.1,-3.3 -2.8,0 -5.1,1.1 -6.9,3.3 -1.8,2 -2.7,5.4 -2.7,9.8 z"
   id="path122" />
		<path
   class="st13"
   d="m 698.8,112 11.6,2 c -1.5,4.3 -3.9,7.5 -7.1,9.7 -3.2,2.2 -7.3,3.3 -12.1,3.3 -7.7,0 -13.3,-2.5 -17,-7.5 -2.9,-4 -4.4,-9.1 -4.4,-15.2 0,-7.3 1.9,-13 5.7,-17.2 3.8,-4.1 8.7,-6.2 14.5,-6.2 6.6,0 11.7,2.2 15.5,6.5 3.8,4.3 5.6,11 5.4,19.9 h -29.2 c 0.1,3.5 1,6.2 2.8,8.1 1.8,1.9 4,2.9 6.7,2.9 1.8,0 3.4,-0.5 4.6,-1.5 1.5,-0.9 2.4,-2.5 3,-4.8 z m 0.7,-11.8 c -0.1,-3.4 -1,-5.9 -2.6,-7.7 -1.6,-1.8 -3.7,-2.6 -6.1,-2.6 -2.5,0 -4.7,0.9 -6.3,2.8 -1.7,1.9 -2.5,4.4 -2.4,7.6 h 17.4 z"
   id="path124" />
	</g>
	
</g>
</svg>
